HIERARCHY
ROOT Pelvis
{
	OFFSET 0.000000 0.000000 0.000000
	CHANNELS 6 Xposition Yposition Zposition Xrotation Yrotation Zrotation
	JOINT LeftUpLeg_virtual
	{
		OFFSET 0.000000 0.000000 0.000000
		CHANNELS 3 Xrotation Yrotation Zrotation
		JOINT LeftUpLeg
		{
			OFFSET 18.735201 -5.666702 -4.541200
			CHANNELS 3 Xrotation Yrotation Zrotation
			JOINT LeftLeg
			{
				OFFSET -0.021200 -31.938179 0.493100
				CHANNELS 3 Xrotation Yrotation Zrotation
				JOINT LeftFoot
				{
					OFFSET 0.021200 -31.938179 -4.336299
					CHANNELS 3 Xrotation Yrotation Zrotation
					JOINT LeftToeBase
					{
						OFFSET 0.943001 -26.722000 15.023500
						CHANNELS 3 Xrotation Yrotation Zrotation
						End Site
						{
							OFFSET 0 0 0
						}
					}
				}
			}
		}
	}
	JOINT RightUpLeg_virtual
	{
		OFFSET 0.000000 0.000000 0.000000
		CHANNELS 3 Xrotation Yrotation Zrotation
		JOINT RightUpLeg
		{
			OFFSET -18.735201 -5.666702 -4.541200
			CHANNELS 3 Xrotation Yrotation Zrotation
			JOINT RightLeg
			{
				OFFSET 0.018946 -31.938133 0.493100
				CHANNELS 3 Xrotation Yrotation Zrotation
				JOINT RightFoot
				{
					OFFSET -0.018946 -31.938126 -4.336299
					CHANNELS 3 Xrotation Yrotation Zrotation
					JOINT RightToeBase
					{
						OFFSET -0.943001 -26.722004 15.023500
						CHANNELS 3 Xrotation Yrotation Zrotation
						End Site
						{
							OFFSET 0 0 0
						}
					}
				}
			}
		}
	}
	JOINT Hips_virtual
	{
		OFFSET 0.000000 0.000000 0.000000
		CHANNELS 3 Xrotation Yrotation Zrotation
		JOINT Hips
		{
			OFFSET -0.000000 -0.000000 -0.000000
			CHANNELS 3 Xrotation Yrotation Zrotation
			JOINT Spine
			{
				OFFSET 0.000000 10.199997 -0.299500
				CHANNELS 3 Xrotation Yrotation Zrotation
				JOINT Spine1
				{
					OFFSET 0.000000 11.900002 -1.516600
					CHANNELS 3 Xrotation Yrotation Zrotation
					JOINT Spine2
					{
						OFFSET 0.000000 13.600006 -2.842500
						CHANNELS 3 Xrotation Yrotation Zrotation
						JOINT Neck_virtual
						{
							OFFSET 0.000000 0.000000 0.000000
							CHANNELS 3 Xrotation Yrotation Zrotation
							JOINT Neck
							{
								OFFSET 0.000000 9.624100 -2.890100
								CHANNELS 3 Xrotation Yrotation Zrotation
								JOINT Head
								{
									OFFSET 0.000000 14.068802 -1.351900
									CHANNELS 3 Xrotation Yrotation Zrotation
									End Site
									{
										OFFSET 0 0 0
									}
								}
							}
						}
						JOINT LeftShoulder_virtual
						{
							OFFSET 0.000000 0.000000 0.000000
							CHANNELS 3 Xrotation Yrotation Zrotation
							JOINT LeftShoulder
							{
								OFFSET 15.263000 10.923401 -0.547700
								CHANNELS 3 Xrotation Yrotation Zrotation
								JOINT LeftArm
								{
									OFFSET 25.438599 -2.830597 -13.032500
									CHANNELS 3 Xrotation Yrotation Zrotation
									JOINT LeftForeArm
									{
										OFFSET 29.960503 0.000000 0.000000
										CHANNELS 3 Xrotation Yrotation Zrotation
										JOINT LeftHand
										{
											OFFSET 27.849251 0.000000 0.000000
											CHANNELS 3 Xrotation Yrotation Zrotation
											End Site
											{
												OFFSET 0 0 0
											}
										}
									}
								}
							}
						}
						JOINT RightShoulder_virtual
						{
							OFFSET 0.000000 0.000000 0.000000
							CHANNELS 3 Xrotation Yrotation Zrotation
							JOINT RightShoulder
							{
								OFFSET -15.263000 10.923401 -0.547700
								CHANNELS 3 Xrotation Yrotation Zrotation
								JOINT RightArm
								{
									OFFSET -25.438599 -2.830597 -13.032500
									CHANNELS 3 Xrotation Yrotation Zrotation
									JOINT RightForeArm
									{
										OFFSET -29.960503 0.000000 0.000000
										CHANNELS 3 Xrotation Yrotation Zrotation
										JOINT RightHand
										{
											OFFSET -27.849251 0.000000 0.000000
											CHANNELS 3 Xrotation Yrotation Zrotation
											End Site
											{
												OFFSET 0 0 0
											}
										}
									}
								}
							}
						}
					}
				}
			}
		}
	}
}
MOTION
Frames: 8
Frame Time: 0.03333333
-2.253817 88.869987 22.453094 0.000000 0.000000 0.000000 23.964231 -6.092004 3.457473 -33.789308 7.020389 4.275003 31.413594 15.700317 -1.735215 -7.534821 28.644241 -0.370164 0.000000 0.000000 0.000000 24.818001 -5.684731 3.876203 -70.138256 3.476384 -16.825223 44.029981 0.429990 4.602996 0.982761 -10.552857 9.127456 0.000000 0.000000 0.000000 25.556924 -4.373086 3.728530 -0.785320 0.081083 -0.020573 7.584063 3.037380 3.443303 6.160087 3.727841 -4.862460 0.000000 0.000000 0.000000 2.159421 1.138439 -2.969034 3.203647 0.647230 0.095654 0.000000 0.000000 0.000000 3.685831 1.155652 -3.177780 1.426711 4.191238 -6.927636 -26.298255 -21.155433 -58.821985 -6.057119 -23.280712 -6.842206 0.000000 0.000000 0.000000 0.998642 1.065395 -2.988194 11.318594 24.877712 -2.406389 -23.210596 -11.938497 71.892584 15.358659 26.705739 -11.363880 0.000000 0.000000 0.000000 
-2.446356 89.778610 24.856205 0.000000 0.000000 0.000000 24.057922 -5.243850 3.525030 -33.828107 6.347162 4.561774 28.609017 15.027987 -2.301500 -5.941387 27.944035 -3.264913 0.000000 0.000000 0.000000 24.927650 -4.577497 3.613926 -69.281730 2.592903 -17.666291 44.125713 0.185011 4.526299 1.815367 -11.528483 9.749415 0.000000 0.000000 0.000000 25.527448 -3.196810 3.695054 -0.768853 0.100635 -0.031706 7.233566 3.506365 3.608411 6.035848 4.204404 -4.898304 0.000000 0.000000 0.000000 2.124180 1.544988 -3.098375 3.268667 0.559731 -0.031827 0.000000 0.000000 0.000000 3.588353 1.674032 -2.776856 1.528219 5.750890 -5.826502 -25.184801 -17.516440 -57.428210 -6.059541 -23.881278 -6.818870 0.000000 0.000000 0.000000 1.022477 1.441963 -3.190713 11.351809 24.695191 -2.822999 -24.509203 -13.196936 70.439092 15.604465 26.704085 -11.243075 0.000000 0.000000 0.000000 
-2.565086 90.980286 27.845890 0.000000 0.000000 0.000000 24.333737 -3.216684 3.578760 -34.872241 6.066228 4.150820 25.244997 15.705829 -3.633005 -2.944162 28.368950 -4.311130 0.000000 0.000000 0.000000 25.018225 -2.436193 3.506225 -66.408481 0.217323 -19.843983 42.694174 0.201501 3.705709 1.053424 -12.944619 9.977228 0.000000 0.000000 0.000000 25.412043 -1.470277 3.933813 -0.761662 0.061553 0.001863 7.131226 4.396426 3.712721 5.883797 4.829966 -4.685649 0.000000 0.000000 0.000000 1.750141 2.216955 -2.834899 3.275174 0.476447 -0.325322 0.000000 0.000000 0.000000 3.262252 2.393057 -2.033236 1.575894 6.374934 -4.346721 -21.485216 -12.353878 -55.611943 -5.846734 -26.112957 -6.867299 0.000000 0.000000 0.000000 0.942054 2.066279 -3.131024 11.558237 24.004912 -3.672480 -26.662835 -14.559687 68.639016 16.178421 26.956014 -11.485330 0.000000 0.000000 0.000000 
-2.632105 91.979767 30.706310 0.000000 0.000000 0.000000 24.331594 -0.296211 3.458331 -37.406894 6.397924 3.245136 23.337979 17.219732 -5.592634 0.258246 29.645678 -3.736817 0.000000 0.000000 0.000000 24.907221 0.396179 3.402778 -61.683992 -3.583399 -22.550744 40.501458 0.618773 2.489958 -2.318295 -14.612413 9.656113 0.000000 0.000000 0.000000 25.027942 0.389577 4.103149 -0.788298 0.017606 0.057738 7.405498 5.435001 4.068106 5.706654 5.424628 -4.183361 0.000000 0.000000 0.000000 1.132554 2.967914 -2.261922 3.187845 0.406164 -0.672362 0.000000 0.000000 0.000000 2.827122 3.138520 -1.115748 1.583371 5.648084 -3.011871 -16.353783 -7.101119 -54.129642 -5.388597 -29.047425 -6.931596 0.000000 0.000000 0.000000 0.618586 2.753209 -2.781039 11.905056 23.248506 -4.915439 -29.752075 -15.106370 66.357781 16.953624 27.624099 -11.975969 0.000000 0.000000 0.000000 
-2.487134 92.253487 33.387646 0.000000 0.000000 0.000000 23.801959 2.803288 3.190799 -41.317703 6.916962 2.290311 24.042918 18.465010 -8.027975 2.345624 30.668430 -2.788798 0.000000 0.000000 0.000000 24.341847 3.377456 3.253346 -55.772914 -8.415048 -24.924153 39.164489 1.352423 1.270849 -7.875125 -16.148722 8.936598 0.000000 0.000000 0.000000 24.188150 2.261455 3.977648 -0.783730 0.028746 0.076737 7.971913 6.527338 4.987463 5.583837 5.951616 -3.491923 0.000000 0.000000 0.000000 0.316646 3.652755 -1.530465 2.978746 0.328224 -0.991328 0.000000 0.000000 0.000000 2.403152 3.772638 -0.210340 1.595609 3.697630 -2.146689 -10.983261 -2.766990 -53.286158 -4.696445 -31.897858 -6.868627 0.000000 0.000000 0.000000 0.138302 3.385860 -2.184940 12.320225 22.734095 -6.461413 -33.632698 -14.188216 63.357245 17.775774 28.782540 -12.517637 0.000000 0.000000 0.000000 
-2.440857 91.642998 35.809158 0.000000 0.000000 0.000000 22.540567 5.391703 2.852395 -45.482581 7.265539 1.746130 27.147188 18.684836 -10.790983 2.387780 30.307995 -2.479199 0.000000 0.000000 0.000000 23.248226 6.017166 3.014653 -49.312019 -13.488432 -26.088647 39.381696 2.130168 0.440792 -15.288207 -17.212915 7.898389 0.000000 0.000000 0.000000 22.858785 4.279741 3.448973 -0.799272 0.090216 -0.019501 8.528721 7.550611 6.371624 5.446839 6.368869 -2.754716 0.000000 0.000000 0.000000 -0.603465 4.214786 -0.850597 2.669401 0.212257 -1.209142 0.000000 0.000000 0.000000 1.983545 4.234903 0.539586 1.555732 0.814926 -1.941761 -5.722281 0.154090 -52.882900 -3.907564 -34.503213 -6.624096 0.000000 0.000000 0.000000 -0.374534 3.911368 -1.478872 12.668439 22.489142 -8.069347 -37.737342 -11.238146 59.860884 18.515553 30.421468 -12.916863 0.000000 0.000000 0.000000 
-2.505515 90.482468 38.262875 0.000000 0.000000 0.000000 20.664679 7.245409 2.556909 -48.561996 7.293778 1.966898 31.184154 17.601276 -13.455269 1.300780 28.270240 -3.495503 0.000000 0.000000 0.000000 21.563635 8.062364 2.750435 -43.011347 -17.871605 -26.170358 41.020777 2.712444 0.038840 -23.159565 -17.661064 6.799200 0.000000 0.000000 0.000000 21.014583 6.296288 2.793066 -0.827829 0.123993 -0.138063 8.891065 8.373287 7.532613 5.249223 6.666629 -2.119121 0.000000 0.000000 0.000000 -1.515161 4.630757 -0.296437 2.333281 0.045797 -1.279615 0.000000 0.000000 0.000000 1.679963 4.500465 1.114031 1.400801 -2.302900 -2.125530 -0.325201 2.089074 -52.284914 -3.266268 -37.653112 -6.330831 0.000000 0.000000 0.000000 -0.939028 4.291179 -0.805082 12.857438 22.463958 -9.308358 -41.069272 -6.466206 56.389171 19.172732 33.006121 -13.208015 0.000000 0.000000 0.000000 
-2.471370 89.243118 40.584579 0.000000 0.000000 0.000000 18.429775 8.486513 2.346383 -49.518926 6.533303 2.588093 34.717213 15.757890 -15.457309 0.328325 25.340579 -5.030985 0.000000 0.000000 0.000000 19.361894 9.258113 2.613432 -37.419266 -20.888494 -25.801040 42.801097 3.093154 -0.166794 -28.686470 -17.356293 6.674609 0.000000 0.000000 0.000000 18.894868 7.855376 2.467542 -0.819809 0.076608 -0.187267 8.999193 9.075943 7.840099 5.046189 6.881134 -1.764809 0.000000 0.000000 0.000000 -2.308822 4.843688 0.131292 2.060787 -0.170839 -1.235145 0.000000 0.000000 0.000000 1.457103 4.577054 1.505343 1.041665 -4.926780 -2.506804 5.362392 3.960749 -51.099644 -2.893241 -42.114250 -6.094311 0.000000 0.000000 0.000000 -1.445375 4.587665 -0.259301 12.810326 22.591718 -9.737773 -42.523197 -0.605408 53.167914 19.865231 37.157534 -13.533698 0.000000 0.000000 0.000000 
